<svg xmlns="http://www.w3.org/2000/svg" width="17.299" height="17.331" viewBox="0 0 17.299 17.331"><defs><style>.a{fill:none;stroke:#000;stroke-linecap:round;stroke-linejoin:round;}</style></defs><path class="a" d="M19.465,15.226v2.458a1.639,1.639,0,0,1-1.786,1.639,16.217,16.217,0,0,1-7.072-2.516A15.979,15.979,0,0,1,5.69,11.891a16.217,16.217,0,0,1-2.516-7.1A1.639,1.639,0,0,1,4.805,3H7.263A1.639,1.639,0,0,1,8.9,4.409a10.521,10.521,0,0,0,.574,2.3,1.639,1.639,0,0,1-.369,1.729L8.066,9.482A13.111,13.111,0,0,0,12.983,14.4l1.041-1.041a1.639,1.639,0,0,1,1.729-.369,10.521,10.521,0,0,0,2.3.574,1.639,1.639,0,0,1,1.409,1.663Z" transform="translate(-2.667 -2.5)"/></svg>