<svg xmlns="http://www.w3.org/2000/svg" xmlns:xlink="http://www.w3.org/1999/xlink" width="20" height="20" viewBox="0 0 20 20">
  <defs>
    <clipPath id="clip-Custom_Size_1">
      <rect width="20" height="20"/>
    </clipPath>
  </defs>
  <g id="Custom_Size_1" data-name="Custom Size – 1" clip-path="url(#clip-Custom_Size_1)">
    <path id="Icon_awesome-receipt" data-name="Icon awesome-receipt" d="M13.067.116l-1.4,1.633L9.683.116a.58.58,0,0,0-.7,0L7,1.749,5.017.116a.58.58,0,0,0-.7,0L2.333,1.749.933.116A.583.583,0,0,0,0,.582v17.5a.583.583,0,0,0,.933.467l1.4-1.633,1.983,1.633a.58.58,0,0,0,.7,0L7,16.916l1.983,1.633a.58.58,0,0,0,.7,0l1.983-1.633,1.4,1.633A.584.584,0,0,0,14,18.082V.582a.583.583,0,0,0-.933-.467Zm-1.4,13.008a.293.293,0,0,1-.292.292H2.625a.293.293,0,0,1-.292-.292v-.583a.293.293,0,0,1,.292-.292h8.75a.293.293,0,0,1,.292.292Zm0-3.5a.293.293,0,0,1-.292.292H2.625a.293.293,0,0,1-.292-.292V9.041a.293.293,0,0,1,.292-.292h8.75a.293.293,0,0,1,.292.292Zm0-3.5a.293.293,0,0,1-.292.292H2.625a.293.293,0,0,1-.292-.292V5.541a.293.293,0,0,1,.292-.292h8.75a.293.293,0,0,1,.292.292Z" transform="translate(3 1.002)" fill="#1b3799"/>
  </g>
</svg>
