<svg id="Component_5_1" data-name="Component 5 – 1" xmlns="http://www.w3.org/2000/svg" width="72.206" height="32" viewBox="0 0 72.206 32">
  <g id="Group_12" data-name="Group 12">
    <path id="Path_16" data-name="Path 16" d="M20.369,172.594h.862v7.545H20.38v-6.111l-2.748,4.042h-.043l-2.749-4.031v6.1h-.83v-7.545h.862l2.749,4.118Zm4.027,0h-.852v7.545h4.48v-.787H24.4Zm7.888,3.363c-1.66-.356-2.048-.755-2.048-1.466v-.022c0-.679.625-1.218,1.606-1.218a3.314,3.314,0,0,1,2.177.819l.5-.658a3.935,3.935,0,0,0-2.651-.927,2.228,2.228,0,0,0-2.479,2.059v.021c0,1.24.8,1.8,2.533,2.177,1.585.334,1.962.733,1.962,1.434v.021c0,.744-.669,1.283-1.682,1.283a3.593,3.593,0,0,1-2.587-1.067l-.528.625a4.415,4.415,0,0,0,3.083,1.207c1.5,0,2.577-.841,2.577-2.134v-.021C34.742,176.937,33.966,176.323,32.285,175.957Z" transform="translate(-12.041 -148.247)" fill="#4f5a65"/>
    <g id="Group_11" data-name="Group 11">
      <path id="Path_17" data-name="Path 17" d="M1.968,19.808l2.6-.984c2.7.833,3.406.984,4.264.984,3.583,0,5.324-2.246,5.324-6.788,0-4.391-1.59-6.485-4.845-6.485A15.033,15.033,0,0,0,4.87,7.746V0L0,1.236V2.271H1.968Zm2.9-11a14.919,14.919,0,0,1,3.28-.429c1.968,0,2.927,1.539,2.927,4.87,0,3.709-1.161,4.9-3.861,4.9A10.488,10.488,0,0,1,4.87,17.89ZM24.739,6.56a3.37,3.37,0,0,1,1.085.177v4.542H23.932l-.53-2.65A10.187,10.187,0,0,0,20,8.857V17.94l2.574.807V19.5H15.125v-.757l1.968-.807V8.831H15.125V7.8L20,6.535V7.772A16.721,16.721,0,0,1,24.739,6.56ZM31.9,17.94l1.842.807V19.5H27.029v-.757L29,17.94V8.831H27.029V7.8L31.9,6.535ZM46.7,4.416,43.977,6.964a9.052,9.052,0,0,0-3.053-.454c-3.684,0-5.93,1.489-5.93,4.542a3.939,3.939,0,0,0,1.564,3.381,4.46,4.46,0,0,0-1.615,2.851,2.376,2.376,0,0,0,.807,1.766,4.4,4.4,0,0,0-1.943,3.28c0,2.069,2.3,3.583,6.611,3.583s7.216-1.816,7.216-4.769a3.385,3.385,0,0,0-3.507-3.406l-6.005-.328c-1.009-.076-1.337-.959-.681-2.473a8.4,8.4,0,0,0,3.406.606C44.632,15.543,46.7,14,46.7,11a4.042,4.042,0,0,0-1.337-3.23l2.624-1.161Zm-9.26,15.316,5.98.328A1.521,1.521,0,0,1,44.86,21.7c0,1.842-1.716,2.978-4.214,2.978-2.422,0-4.113-1.161-4.113-3.154a7.1,7.1,0,0,1,.328-1.867A4.046,4.046,0,0,0,37.441,19.732Zm3.406-5.425C38.9,14.307,38,13.348,38,11c0-2.322.908-3.255,2.851-3.255S43.7,8.68,43.7,11C43.7,13.348,42.791,14.307,40.848,14.307ZM61.523,17.94l1.842.807V19.5H56.653v-.757l1.968-.807v-7.57c0-1.489-1.135-1.943-2.6-1.943a27.847,27.847,0,0,0-3.129.227V17.94l1.842.807V19.5H48.023v-.757l1.968-.807V2.271H48.023V1.236L52.893,0V7.671a36.116,36.116,0,0,1,5.223-1.135c1.918,0,3.406.581,3.406,3.28ZM28.83,2.844A1.667,1.667,0,1,1,30.5,4.511,1.667,1.667,0,0,1,28.83,2.844ZM72.206,18.723c-2.5.883-3.28,1.11-4.491,1.11-1.842,0-3.129-1.085-3.129-3.532V9.862h.009c1.631.006,2.892.511,2.892,2.813v3.271c0,1.514.858,2.019,1.791,2.019.353,0,1.64-.025,2.725-.151Z" fill="#4f5a65"/>
      <path id="Path_18" data-name="Path 18" d="M449.12,24.485a4.388,4.388,0,0,1,4.127-1.932c.094,0,.19,0,.3,0v-.87c-2.751,0-4.35-1.208-4.35-4.143H448.3c0,2.462-1.465,4.143-3.771,4.143v.823A6.011,6.011,0,0,1,449.12,24.485Z" transform="translate(-382.063 -15.075)" fill="#ff4500"/>
    </g>
  </g>
</svg>
