<svg xmlns="http://www.w3.org/2000/svg" width="25.849" height="22.161" viewBox="0 0 25.849 22.161">
  <g id="Icon_ionic-ios-folder-open" data-name="Icon ionic-ios-folder-open" transform="translate(-2.252 -4.5)">
    <path id="Path_221" data-name="Path 221" d="M26.661,7.674a1.273,1.273,0,0,0-1.316-1.327H14.132a.427.427,0,0,1-.352-.139l-1.3-1.3L12.47,4.9a1.254,1.254,0,0,0-1-.4H5.925A1.373,1.373,0,0,0,4.5,5.827V10.04H26.661Z" transform="translate(-0.403)" fill="#1f3a93"/>
    <path id="Path_222" data-name="Path 222" d="M4.1,13.219H3.618c-.739,0-1.46.294-1.356,1.4s1.356,12.16,1.356,12.16c.156,1.027.675,1.443,1.443,1.443H25.4c.733,0,1.212-.45,1.327-1.443,0,0,1.281-10.671,1.362-11.86s-.514-1.7-1.362-1.7H4.1Z" transform="translate(0 -1.563)" fill="#1f3a93"/>
  </g>
</svg>
