<svg xmlns="http://www.w3.org/2000/svg" width="20.688" height="27.584" viewBox="0 0 20.688 27.584">
  <path id="Icon_awesome-file-invoice" data-name="Icon awesome-file-invoice" d="M15.516,13.792H5.172V17.24H15.516Zm4.795-8.135L15.036.377A1.292,1.292,0,0,0,14.121,0h-.329V6.9h6.9V6.567A1.289,1.289,0,0,0,20.311,5.657Zm-8.243,1.67V0H1.293A1.29,1.29,0,0,0,0,1.293v25a1.29,1.29,0,0,0,1.293,1.293h18.1a1.29,1.29,0,0,0,1.293-1.293V8.62H13.361A1.3,1.3,0,0,1,12.068,7.327ZM3.448,3.879a.431.431,0,0,1,.431-.431h4.31a.431.431,0,0,1,.431.431v.862a.431.431,0,0,1-.431.431H3.879a.431.431,0,0,1-.431-.431Zm0,3.448A.431.431,0,0,1,3.879,6.9h4.31a.431.431,0,0,1,.431.431v.862a.431.431,0,0,1-.431.431H3.879a.431.431,0,0,1-.431-.431ZM17.24,23.7a.431.431,0,0,1-.431.431H12.5a.431.431,0,0,1-.431-.431v-.862a.431.431,0,0,1,.431-.431h4.31a.431.431,0,0,1,.431.431Zm0-10.775V18.1a.862.862,0,0,1-.862.862H4.31a.862.862,0,0,1-.862-.862V12.93a.862.862,0,0,1,.862-.862H16.378A.862.862,0,0,1,17.24,12.93Z" fill="#1f3a93"/>
</svg>
