<svg xmlns="http://www.w3.org/2000/svg" width="243" height="162" viewBox="0 0 243 162">
  <g id="_Empty_State_z-nested_Lake_Mountain_Simplified" data-name=" Empty State / z-nested / Lake Mountain / Simplified" transform="translate(-53.223 -29.148)">
    <g id="_Empty_State_z-nested_Lake_Mountain_Simplified-2" data-name=" Empty State / z-nested / Lake Mountain / Simplified" transform="translate(53 29)">
      <rect id="Rectangle_" data-name="Rectangle " width="243" height="162" transform="translate(0.223 0.148)" fill="rgba(216,216,216,0)"/>
      <g id="Mountain" transform="translate(24.161 17.856)">
        <g id="MountainWhite" transform="translate(115.952 18.667)">
          <path id="MountainCover" d="M0,15.516,15.445,0,67.958,52.755" transform="translate(0)" fill="#fff"/>
        </g>
        <g id="MountianLightBlue" transform="translate(0)">
          <path id="MountianLightBlueLine5" d="M0,70.9,70.242,0l42.5,42.087" transform="translate(10.296)" fill="none" stroke="#ccc" stroke-linecap="round" stroke-linejoin="round" stroke-miterlimit="10" stroke-width="2"/>
          <path id="MountianLightBlueLine4" d="M45.451,0V55.378L29.956,39.852,0,70.387" transform="translate(35.087 0.518)" fill="none" stroke="#ccc" stroke-linecap="round" stroke-linejoin="round" stroke-miterlimit="10" stroke-width="2"/>
          <path id="MountianLightBlueLine2" d="M0,15.527,15.495,0,68.176,52.79" transform="translate(115.659 18.632)" fill="none" stroke="#ccc" stroke-linecap="round" stroke-linejoin="round" stroke-miterlimit="10" stroke-width="2"/>
          <path id="MountainTree4" d="M1.6.561A.812.812,0,0,1,3.151.576l2.865,9.433L3.623,8.475,0,5.493Z" transform="translate(107.576 21.044)" fill="#ccc"/>
          <path id="MountainTree3" d="M1.624.576a.812.812,0,0,1,1.553,0L6.016,9.923H3.14L0,5.924Z" transform="translate(179.368 60.759)" fill="#ccc"/>
          <path id="MountainTree5" d="M2.477.6A.812.812,0,0,1,4.037.576L6.828,9.765H3.952L0,9.824Z" transform="translate(0 60.917)" fill="#ccc"/>
          <path id="MountainTree2" d="M1.282.6A.812.812,0,0,1,2.85.6L4.132,5.419H0Z" transform="translate(6.68 65.78)" fill="#ccc"/>
          <path id="MountainTree1" d="M1.282.6A.812.812,0,0,1,2.85.6L4.132,5.419H0Z" transform="translate(183.835 65.78)" fill="#ccc"/>
        </g>
      </g>
      <g id="Foreground" transform="translate(9.739 89.684)">
        <g id="ForegroundLightBlue" transform="translate(15.711 13.099)">
          <path id="Water3" d="M35.938,4.825C30.46,4.825,27.454,0,27.454,0a10.373,10.373,0,0,1-8.505,4.825C13.469,4.825,10.465,0,10.465,0S5.752,5.963,0,4.741" transform="translate(19.479 12.637)" fill="none" stroke="#ccc" stroke-linecap="round" stroke-linejoin="round" stroke-miterlimit="10" stroke-width="2"/>
          <path id="Water2" d="M53.974,4.645C48.1,5.867,44.446,0,44.446,0h-.007a10.341,10.341,0,0,1-8.5,4.825C30.46,4.825,27.454,0,27.454,0h-.009a10.328,10.328,0,0,1-8.5,4.825C13.469,4.825,10.465,0,10.465,0h-.009S5.752,5.963,0,4.741" transform="translate(0 0)" fill="none" stroke="#ccc" stroke-linecap="round" stroke-linejoin="round" stroke-miterlimit="10" stroke-width="2"/>
        </g>
        <g id="ForegroundDarkBlue" transform="translate(0 0)">
          <path id="ForegroundDarkBlueLine5" d="M0,0H96.583S79.649,2.413,78.727,15.827c0,12.731,12.122,16.638,17.856,16.638h51.944c7.642,0,15.421.089,15.421,7.71s-6.924,8.522-13.8,8.522H127.424c-3.65,0-8.928,2.619-8.928,8.522a8.553,8.553,0,0,0,8.116,8.522" transform="translate(0 0)" fill="none" stroke="#ccc" stroke-linecap="round" stroke-linejoin="round" stroke-miterlimit="10" stroke-width="2"/>
          <path id="ForegroundDarkBlueLine2" d="M0,1H32.465" transform="translate(175.31 -1)" fill="none" stroke="#ccc" stroke-linecap="round" stroke-miterlimit="10" stroke-width="2"/>
          <path id="ForegroundDarkBlueLine1" d="M0,1.5H14.609" transform="translate(212.644 -1.5)" fill="none" stroke="#ccc" stroke-linecap="round" stroke-miterlimit="10" stroke-width="2"/>
        </g>
      </g>
      <g id="Tree2" transform="translate(141.222 71.017)">
        <g id="Tree2LightBlue" transform="translate(0.565 1.164)">
          <path id="Tree2LightBluebkgd" d="M11.678,1.152a1.623,1.623,0,0,1,3.106,0l11.608,38.2a1.623,1.623,0,0,1-1.553,2.1H1.623a1.623,1.623,0,0,1-1.553-2.1Z" transform="translate(0.001 -0.001)" fill="#f8f8f8"/>
        </g>
        <g id="Tree2DarkBlue" transform="translate(0 0)">
          <path id="Tree2DarkBlueOutline1" d="M14.2,0,27.6,43.016H0Z" transform="translate(0)" fill="none" stroke="#ccc" stroke-linecap="round" stroke-linejoin="round" stroke-miterlimit="10" stroke-width="2"/>
          <path id="Tree2DarkBlueLine2" d="M0,0S0,45.224,0,46.262C0,45.224,0,0,0,0Z" transform="translate(14.203 3.915)" fill="none" stroke="#ccc" stroke-linecap="round" stroke-linejoin="round" stroke-miterlimit="10" stroke-width="2"/>
          <path id="Tree2DarkBlueLine1" d="M-1.507,0S-8,7.866-8,8.116C-8,7.866-1.507,0-1.507,0Z" transform="translate(22.609 22.582)" fill="none" stroke="#ccc" stroke-linecap="round" stroke-linejoin="round" stroke-miterlimit="10" stroke-width="2"/>
        </g>
      </g>
      <g id="Tree1" transform="translate(107.659 50.32)">
        <g id="Tree1LightBlue" transform="translate(0.656 2.435)">
          <path id="Tree1LightBlueBkgd" d="M20.444,0,40.8,58.716a1.623,1.623,0,0,1-1.534,2.155H1.623A1.623,1.623,0,0,1,.089,58.716Z" transform="translate(0.002)" fill="#f8f8f8"/>
        </g>
        <g id="Tree1DarkBlue" transform="translate(0)">
          <path id="Tree1DarkBlueOutine" d="M20.982,0,42.2,63.712H0Z" fill="none" stroke="#ccc" stroke-linecap="round" stroke-linejoin="round" stroke-miterlimit="10" stroke-width="2"/>
          <path id="Tree1DarkBlueLine3" d="M0,0S0,64.723,0,66.553C0,64.723,0,0,0,0Z" transform="translate(20.982 4.058)" fill="none" stroke="#ccc" stroke-linecap="round" stroke-linejoin="round" stroke-miterlimit="10" stroke-width="2"/>
          <path id="Tree1DarkBlueLine2" d="M0,0S8.928,8.618,8.928,8.928C8.928,8.618,0,0,0,0Z" transform="translate(12.174 26.783)" fill="none" stroke="#ccc" stroke-linecap="round" stroke-linejoin="round" stroke-miterlimit="10" stroke-width="2"/>
          <path id="Tree1DarkBlueLine1" d="M0,12.993S11.363-.3,11.363.007C11.363-.3,0,12.993,0,12.993Z" transform="translate(21.914 37.327)" fill="none" stroke="#ccc" stroke-linecap="round" stroke-linejoin="round" stroke-miterlimit="10" stroke-width="2"/>
        </g>
      </g>
    </g>
  </g>
</svg>
