<svg xmlns="http://www.w3.org/2000/svg" width="17" height="20.719" viewBox="0 0 17 20.719">
  <path id="Icon_material-notifications-none" data-name="Icon material-notifications-none" d="M14.5,24.469a2.131,2.131,0,0,0,2.125-2.125h-4.25A2.131,2.131,0,0,0,14.5,24.469Zm6.375-6.375V12.781c0-3.262-1.732-5.993-4.781-6.715V5.344a1.594,1.594,0,1,0-3.187,0v.722c-3.039.722-4.781,3.443-4.781,6.715v5.313L6,20.219v1.063H23V20.219ZM18.75,19.156h-8.5V12.781C10.25,10.146,11.854,8,14.5,8s4.25,2.146,4.25,4.781Z" transform="translate(-6 -3.75)" fill="#1f3a93"/>
</svg>
