<svg xmlns="http://www.w3.org/2000/svg" width="20" height="22.222" viewBox="0 0 20 22.222">
  <path id="Icon_material-perm-contact-calendar" data-name="Icon material-perm-contact-calendar" d="M22.278,3.722H21.167V1.5H18.944V3.722H10.056V1.5H7.833V3.722H6.722A2.222,2.222,0,0,0,4.5,5.944V21.5a2.222,2.222,0,0,0,2.222,2.222H22.278A2.229,2.229,0,0,0,24.5,21.5V5.944A2.229,2.229,0,0,0,22.278,3.722ZM14.5,7.056a3.333,3.333,0,1,1-3.333,3.333A3.329,3.329,0,0,1,14.5,7.056Zm6.667,13.333H7.833V19.278c0-2.222,4.444-3.444,6.667-3.444s6.667,1.222,6.667,3.444Z" transform="translate(-4.5 -1.5)" fill="#1f3a93"/>
</svg>
