<svg xmlns="http://www.w3.org/2000/svg" xmlns:xlink="http://www.w3.org/1999/xlink" width="20" height="15" viewBox="0 0 20 15">
  <defs>
    <clipPath id="clip-Custom_Size_1">
      <rect width="20" height="15"/>
    </clipPath>
  </defs>
  <g id="Custom_Size_1" data-name="Custom Size – 1" clip-path="url(#clip-Custom_Size_1)">
    <path id="Icon_material-contact-phone" data-name="Icon material-contact-phone" d="M18.333,4.5H1.667A1.672,1.672,0,0,0,0,6.167V17.833A1.672,1.672,0,0,0,1.667,19.5H18.333a1.664,1.664,0,0,0,1.658-1.667L20,6.167A1.672,1.672,0,0,0,18.333,4.5ZM6.667,7a2.5,2.5,0,1,1-2.5,2.5A2.5,2.5,0,0,1,6.667,7Zm5,10h-10v-.833c0-1.667,3.333-2.583,5-2.583s5,.917,5,2.583Zm3.208-3.333h1.367L17.5,15.333l-1.658,1.658a6.26,6.26,0,0,1-2.275-3.325,6.069,6.069,0,0,1,0-3.333,6.228,6.228,0,0,1,2.275-3.325L17.5,8.667l-1.258,1.667H14.875a4.908,4.908,0,0,0,0,3.333Z" transform="translate(0 -4.5)" fill="#4f5a65"/>
  </g>
</svg>
