<svg id="Utility_Icons_down" data-name="Utility Icons / down" xmlns="http://www.w3.org/2000/svg" xmlns:xlink="http://www.w3.org/1999/xlink" width="10.905" height="6.162" viewBox="0 0 10.905 6.162">
  <defs>
    <clipPath id="clip-path">
      <path id="_Icon_Color" data-name="🎨 Icon Color" d="M.374,0H10.547a.333.333,0,0,1,.259.565L5.834,6.008a.5.5,0,0,1-.718,0L.086.565A.343.343,0,0,1,.374,0Z" fill="#4f5a65"/>
    </clipPath>
  </defs>
  <g id="Group_89" data-name="Group 89" transform="translate(0)">
    <path id="_Icon_Color-2" data-name="🎨 Icon Color" d="M.374,0H10.547a.333.333,0,0,1,.259.565L5.834,6.008a.5.5,0,0,1-.718,0L.086.565A.343.343,0,0,1,.374,0Z" transform="translate(0)" fill="#4f5a65"/>
  </g>
</svg>
