<svg id="Component_4_1" data-name="Component 4 – 1" xmlns="http://www.w3.org/2000/svg" width="27.518" height="30.689" viewBox="0 0 27.518 30.689">
  <path id="Path_1" data-name="Path 1" d="M171.9,122.274c1.279-2.033,3.361-3,6.328-2.962.143,0,.292,0,.453,0v-1.335c-4.219,0-6.671-1.852-6.671-6.352h-1.362c0,3.776-2.247,6.352-5.783,6.352v1.262C168,119.347,170.435,120.024,171.9,122.274Z" transform="translate(-151.164 -111.626)" fill="#ff4500"/>
  <g id="Group_1" data-name="Group 1" transform="translate(0 0.317)">
    <path id="Path_2" data-name="Path 2" d="M127.708,122.836c-1.277,0-3.1.5-6.81,1.857V112.816l-7.467,1.9V116.3h3.018v26.889l3.985-1.509c4.139,1.277,5.223,1.509,6.539,1.509,5.494,0,8.163-3.443,8.163-10.408C135.136,126.048,132.7,122.836,127.708,122.836Zm-3.211,17.8a16.09,16.09,0,0,1-3.6-.387V126.319a22.872,22.872,0,0,1,5.03-.658c3.018,0,4.488,2.36,4.488,7.467C130.416,138.815,128.636,140.634,124.5,140.634Z" transform="translate(-113.431 -112.816)" fill="#4f5a65"/>
  </g>
</svg>
