<?xml version="1.0" encoding="utf-8"?>
<!-- Generator: Adobe Illustrator 25.3.1, SVG Export Plug-In . SVG Version: 6.00 Build 0)  -->
<svg version="1.1" xmlns="http://www.w3.org/2000/svg" xmlns:xlink="http://www.w3.org/1999/xlink" x="0px" y="0px"
	 viewBox="0 0 100 99.7" style="enable-background:new 0 0 100 99.7;" xml:space="preserve">
<g id="Layer_2">
</g>
<g id="Layer_1">
	<path d="M96.6,85.9L72.8,62c10.1-15.2,8.1-35.4-4.8-48.3C60.7,6.5,51.1,2.5,40.8,2.5s-19.9,4-27.1,11.2c-14.9,15-14.9,39.3,0,54.2
		C26.6,80.8,46.8,82.8,62,72.8l23.9,23.9c1.1,1.1,3,1.1,4.1,0l6.6-6.6C97.8,88.9,97.8,87,96.6,85.9z M59.2,59.2
		c-10.1,10.1-26.6,10.1-36.8,0c-10.1-10.1-10.1-26.6,0-36.8c10.1-10.1,26.6-10.1,36.8,0C69.3,32.6,69.3,49.1,59.2,59.2z"/>
</g>
</svg>
